{"title":"Knight.And.Day.Extended.Cut.2010.720p.BRRip.x264.Feel-Free","uid":6068994,"size":2922097156,"categoryP":"video","categoryS":"hd___movies","magnet":"?xt=urn:btih:46573ce293f8e91ec6b792a43afa08d9d9434790&amp;dn=Knight.And.Day.Extended.Cut.2010.720p.BRRip.x264.Feel-Free&amp;tr=udp%3A%2F%2Ftracker.openbittorrent.com%3A80&amp;tr=udp%3A%2F%2Fopen.demonii.com%3A1337&amp;tr=udp%3A%2F%2Ftracker.coppersurfer.tk%3A6969&amp;tr=udp%3A%2F%2Fexodus.desync.com%3A6969","seeders":1,"leechers":0,"uploader":"hiest","files":10,"time":1293527924,"description":"Genre:Thriller / Comedie / Actiune\nLanguage:English\nIMDb:http://www.imdb.com/title/tt1013743/\nSource:Extended.Cut.2010.BluRay\nSubtitles: ROMANA\n\n\nFormat : Matroska\nFile size : 2.72 GiB\nDuration : 1h 57mn\nOverall bit rate : 3 320 Kbps\n\n\nVideo\nFormat settings, CABAC : Yes\nFormat settings, ReFrames : 4 frames\nCodec ID : V_MPEG4/ISO/AVC\nDuration : 1h 57mn\nBit rate : 3 000 Kbps\nWidth : 1 280 pixels\nHeight : 528 pixels\nDisplay aspect ratio : 2.40:1\nFrame rate mode : Variable\nFrame rate : 24.000 fps\nColor space : YUV\nChroma subsampling : 4:2:0\nBit depth : 8 bits\nScan type : Progressive\nBits/(Pixel*Frame) : 0.185\nStream size : 2.35 GiB (86%)\nWriting library : x264 \n\nAudio\nID : 2\nFormat : AC-3\nFormat/Info : Audio Coding 3\nMode extension : CM (complete main)\nCodec ID : A_AC3\nDuration : 1h 57mn\nBit rate mode : Constant\nBit rate : 384 Kbps\nChannel(s) : 6 channels\nChannel positions : Front: L C R, Side: L R, LFE\nSampling rate : 48.0 KHz\nBit depth : 16 bits\nVideo delay : -1mn 5s\nStream size : 322 MiB (12%)\nLanguage : English\n\n\n\nPlot\nJune Havens (Diaz) finds her everyday life tangled with that of a secret agent (Cruise) who has realized\n\n\n================================== &lt;a href=&quot;\nhttp://thepiratebay.se/user/hiest&quot; rel=&quot;nofollow&quot; target=&quot;_NEW&quot;&gt;\nhttp://thepiratebay.se/user/hiest&lt;/a&gt;\n==================================\n\n\n\n","torrent":{"xt":"urn:btih:46573ce293f8e91ec6b792a43afa08d9d9434790","amp;dn":"Knight.And.Day.Extended.Cut.2010.720p.BRRip.x264.Feel-Free","amp;tr":["udp%3A%2F%2Ftracker.openbittorrent.com%3A80","udp%3A%2F%2Fopen.demonii.com%3A1337","udp%3A%2F%2Ftracker.coppersurfer.tk%3A6969","udp%3A%2F%2Fexodus.desync.com%3A6969"],"infoHash":"46573ce293f8e91ec6b792a43afa08d9d9434790","infoHashBuffer":{"type":"Buffer","data":[70,87,60,226,147,248,233,30,198,183,146,164,58,250,8,217,217,67,71,144]},"announce":[],"urlList":[]}}